<svg id="visual" viewBox="0 0 900 900" width="900" height="900" xmlns="http://www.w3.org/2000/svg" xmlns:xlink="http://www.w3.org/1999/xlink" version="1.1"><rect x="0" y="0" width="900" height="900" fill="#000f22"></rect><path d="M230 0L256.3 15C282.7 30 335.3 60 334.7 90C334 120 280 150 259.5 180C239 210 252 240 273.8 270C295.7 300 326.3 330 324.7 360C323 390 289 420 279.7 450C270.3 480 285.7 510 305.7 540C325.7 570 350.3 600 330.2 630C310 660 245 690 257.5 720C270 750 360 780 376.5 810C393 840 336 870 307.5 885L279 900L0 900L0 885C0 870 0 840 0 810C0 780 0 750 0 720C0 690 0 660 0 630C0 600 0 570 0 540C0 510 0 480 0 450C0 420 0 390 0 360C0 330 0 300 0 270C0 240 0 210 0 180C0 150 0 120 0 90C0 60 0 30 0 15L0 0Z" fill="#23b3a4" stroke-linecap="round" stroke-linejoin="miter"></path></svg>